HIERARCHY
ROOT Hips
{
	OFFSET 0.00000 0.00000 0.00000
	CHANNELS 6 Xposition Yposition Zposition Zrotation Yrotation Xrotation 
	JOINT LHipJoint
	{
		OFFSET 0 0 0
		CHANNELS 3 Zrotation Yrotation Xrotation
		JOINT LeftHip
		{
			OFFSET 1.36443 -1.53315 0.80540
			CHANNELS 3 Zrotation Yrotation Xrotation
			JOINT LeftKnee
			{
				OFFSET 2.27494 -6.25036 0.00000
				CHANNELS 3 Zrotation Yrotation Xrotation
				JOINT LeftAnkle
				{
					OFFSET 2.17461 -5.97470 0.00000
					CHANNELS 3 Zrotation Yrotation Xrotation
					JOINT LeftToe
					{
						OFFSET 0.22144 -0.60841 2.08966
						CHANNELS 3 Zrotation Yrotation Xrotation
						End Site
						{
							OFFSET 0.00000 -0.00000 1.09206
						}
					}
				}
			}
		}
	}
	JOINT RHipJoint
	{
		OFFSET 0 0 0
		CHANNELS 3 Zrotation Yrotation Xrotation
		JOINT RightHip
		{
			OFFSET -1.29957 -1.53315 0.80539
			CHANNELS 3 Zrotation Yrotation Xrotation
			JOINT RightKnee
			{
				OFFSET -2.23917 -6.15209 0.00000
				CHANNELS 3 Zrotation Yrotation Xrotation
				JOINT RightAnkle
				{
					OFFSET -2.18029 -5.99030 0.00000
					CHANNELS 3 Zrotation Yrotation Xrotation
					JOINT RightToe
					{
						OFFSET -0.22354 -0.61416 1.89975
						CHANNELS 3 Zrotation Yrotation Xrotation
						End Site
						{
							OFFSET -0.00000 -0.00000 1.00221
						}
					}
				}
			}
		}
	}
	JOINT lowerback
	{
		OFFSET 0 0 0
		CHANNELS 3 Zrotation Yrotation Xrotation
		JOINT Chest
		{
			OFFSET -0.04725 2.10352 -0.01215
			CHANNELS 3 Zrotation Yrotation Xrotation
			JOINT Chest2
			{
				OFFSET 0.04471 2.09612 -0.07192
				CHANNELS 3 Zrotation Yrotation Xrotation
				JOINT lowerneck
				{
					OFFSET 0 0 0
					CHANNELS 3 Zrotation Yrotation Xrotation
					JOINT Neck
					{
						OFFSET -0.01586 1.38087 0.11506
						CHANNELS 3 Zrotation Yrotation Xrotation
						JOINT Head
						{
							OFFSET -0.01055 1.38869 -0.12115
							CHANNELS 3 Zrotation Yrotation Xrotation
							End Site
							{
								OFFSET -0.00310 1.39537 -0.05348
							}
						}
					}
				}
				JOINT LeftCollar
				{
					OFFSET 0 0 0
					CHANNELS 3 Zrotation Yrotation Xrotation
					JOINT LeftShoulder
					{
						OFFSET 2.71932 0.62535 0.37316
CHANNELS 3 Zrotation Xrotation Yrotation
						JOINT LeftElbow
						{
OFFSET 0 -4.473660 0.000000
CHANNELS 3 Zrotation Xrotation Yrotation
							JOINT LeftWrist
							{
OFFSET 0 -3.199480 -0.000000
CHANNELS 3 Zrotation Xrotation Yrotation
								JOINT lhand
								{
									OFFSET 0 0 0
CHANNELS 3 Zrotation Xrotation Yrotation
									JOINT LFingers
									{
OFFSET 0 -0.492670 -0.000000
CHANNELS 3 Zrotation Xrotation Yrotation
										End Site
										{
OFFSET 0 -0.397200 -0.000000
										}
									}
								}
								JOINT LThumb
								{
OFFSET 0 0.000000 0.000000
CHANNELS 3 Zrotation Xrotation Yrotation
									End Site
									{
OFFSET 0 -0.403270 0.403270
									}
								}
							}
						}
					}
				}
				JOINT RightCollar
				{
					OFFSET 0 0 0
					CHANNELS 3 Zrotation Yrotation Xrotation
					JOINT RightShoulder
					{
						OFFSET -2.97334 0.70851 0.47631
CHANNELS 3 Zrotation Xrotation Yrotation
						JOINT RightElbow
						{
OFFSET 0 -4.326900 -0.000000
CHANNELS 3 Zrotation Xrotation Yrotation
							JOINT RightWrist
							{
OFFSET 0 -3.189600 0.000000
CHANNELS 3 Zrotation Xrotation Yrotation
								JOINT rhand
								{
									OFFSET 0 0 0
CHANNELS 3 Zrotation Xrotation Yrotation
									JOINT RFingers
									{
OFFSET 0 -0.464500 -0.000000
CHANNELS 3 Zrotation Xrotation Yrotation
										End Site
										{
OFFSET 0 -0.374490 -0.000000
										}
									}
								}
								JOINT RThumb
								{
OFFSET 0 0.000000 0.000000
CHANNELS 3 Zrotation Xrotation Yrotation
									End Site
									{
OFFSET 0 -0.380210 0.380210
									}
								}
							}
						}
					}
				}
			}
		}
	}
}
MOTION
Frames: 10
Frame Time: 0.008333333333333333
9.541780 20.568493 9.772375 360.297506 -176.688960 370.388785 0.000000 0.000000 0.000000 -29.577590 -8.036651 -7.104199 3.782498 11.865259 35.256814 4.376928 5.223899 -41.563533 2.453701 -9.753264 -28.181462 0.000000 0.000000 0.000000 21.945509 11.875997 -39.106223 -7.727892 -15.915485 51.576641 -1.243109 -7.484815 -24.991275 -3.366863 11.266417 -33.183816 -0.916594 -0.029365 -0.802764 4.045557 -0.220726 0.888810 4.681079 -0.203684 1.382601 -3.781398 -2.805695 -14.105852 -0.981215 -4.294137 26.553221 -0.393897 -2.984895 10.960625 0.000000 0.000000 0.000000 86.041086 4.722065 25.489749 41.020427 -48.650919 19.205584 23.081846 -14.935066 -3.860124 0.000000 0.000000 0.000000 -7.125000 0.000000 0.000000 -2.920106 34.164079 -0.777399 0.000000 0.000000 0.000000 -92.244750 3.580575 -25.489630 -19.707492 -30.288341 -5.383035 -36.491580 39.391762 32.003719 0.000000 0.000000 0.000000 7.125000 0.000000 0.000000 -6.729777 67.729793 3.697077
9.357263 20.469560 9.282948 360.724491 -176.625179 370.535466 0.000000 0.000000 0.000000 -30.126865 -7.568641 -4.742878 3.650154 11.679737 34.608360 4.329154 5.353730 -41.401102 2.257862 -9.383747 -27.003182 0.000000 0.000000 0.000000 22.122064 11.705727 -37.253260 -8.173340 -16.245207 53.184505 -1.517732 -8.200407 -27.509990 -3.030311 10.743902 -31.421092 0.523441 0.180545 -1.136312 6.384560 -0.226583 0.282492 6.322387 -0.301582 0.955985 -3.253273 -2.902779 -14.891260 -4.601821 -3.616821 26.774001 -1.732637 -3.114377 11.112685 0.000000 0.000000 0.000000 88.681312 5.190935 28.396221 24.965617 -36.164831 8.271243 31.622736 -18.430873 -8.025529 0.000000 0.000000 0.000000 -7.125000 0.000000 0.000000 4.162937 39.350866 0.577033 0.000000 0.000000 0.000000 -95.804954 3.199815 -30.878583 -17.692628 -27.761778 -4.405128 -33.233065 38.424258 32.276936 0.000000 0.000000 0.000000 7.125000 0.000000 0.000000 -1.810366 67.026949 0.956579
9.115853 20.433825 8.770335 358.887716 -176.650394 371.587369 0.000000 0.000000 0.000000 -32.011339 -4.182353 -5.451680 3.867426 11.981718 35.667495 3.898503 1.802258 -38.081534 2.370944 -9.598019 -27.685602 0.000000 0.000000 0.000000 19.256126 12.253267 -36.066956 -8.524499 -16.491766 54.430617 -1.765567 -8.936083 -29.675397 -2.492416 9.823860 -28.408388 0.853876 0.206609 -1.294627 7.232330 -0.331392 0.205390 7.037808 -0.406360 0.982807 -3.985078 -2.867068 -14.738867 -5.959626 -3.107053 26.529256 -2.028555 -3.156605 10.999250 0.000000 0.000000 0.000000 92.226130 5.428079 36.156965 24.831546 -36.027537 8.192207 41.403863 -26.402902 -6.914028 0.000000 0.000000 0.000000 -7.125000 0.000000 0.000000 12.661158 38.862557 1.952567 0.000000 0.000000 0.000000 -89.765499 3.759716 -32.047238 -17.058059 -26.934177 -4.113630 -34.778495 42.004450 32.972310 0.000000 0.000000 0.000000 7.125000 0.000000 0.000000 -3.725169 68.246479 2.077405
9.015674 20.465891 8.135704 358.198761 -176.895349 371.316346 0.000000 0.000000 0.000000 -30.735569 0.414726 -8.133562 5.413303 13.829638 42.569266 2.559450 -5.986319 -29.037980 2.597046 -10.011843 -29.015585 0.000000 0.000000 0.000000 18.900917 12.641394 -31.291080 -8.112710 -16.201275 52.967236 -1.925010 -10.648140 -31.843711 -2.017064 8.897850 -25.478861 0.703252 0.381992 -1.438641 7.172075 -0.104961 0.449320 7.065921 -0.296212 1.289376 -4.758554 -2.770387 -14.117726 -6.477510 -2.890377 27.287450 -2.087133 -3.300723 11.182344 0.000000 0.000000 0.000000 94.016667 4.794189 37.328221 34.945187 -44.767180 14.776671 41.525669 -25.988707 -3.187609 0.000000 0.000000 0.000000 -7.125000 0.000000 0.000000 12.218959 34.034883 3.352162 0.000000 0.000000 0.000000 -85.679540 4.163761 -29.763708 -16.766023 -26.548253 -3.982201 -35.738103 41.245289 32.031826 0.000000 0.000000 0.000000 7.125000 0.000000 0.000000 -5.571687 67.527254 3.022692
9.042156 20.567742 7.410376 359.633327 -176.291259 370.376927 0.000000 0.000000 0.000000 -24.349121 -2.405033 -17.745842 11.894514 18.336930 65.644504 1.159109 -7.152982 -19.393031 1.535437 -7.820545 -22.171520 0.000000 0.000000 0.000000 22.747155 13.989620 -23.752273 -6.823776 -15.181204 48.203812 -3.478722 -7.284614 -38.601587 -0.629630 -2.399881 6.699635 1.404396 0.313444 -0.054074 6.209088 -0.028129 0.634313 5.633598 -0.198179 0.690868 -4.931979 -2.650464 -15.019332 -4.737956 -2.978659 28.129336 -1.483130 -3.134097 11.712299 0.000000 0.000000 0.000000 96.407830 4.483878 33.696013 33.314095 -43.566043 13.639451 41.355861 -27.234590 -3.957351 0.000000 0.000000 0.000000 -7.125000 0.000000 0.000000 12.193497 35.028538 3.044029 0.000000 0.000000 0.000000 -84.634619 3.417917 -28.519356 -16.727142 -26.496665 -3.964836 -35.067815 40.087384 31.885104 0.000000 0.000000 0.000000 7.125000 0.000000 0.000000 -4.639070 67.162332 2.477054
9.174027 20.532533 6.411545 360.549641 -176.495459 370.041733 0.000000 0.000000 0.000000 -18.678227 -12.138932 -32.318890 14.627373 19.292204 74.110679 1.467986 0.825181 -23.227146 3.072897 -10.809385 -31.642694 0.000000 0.000000 0.000000 26.869786 15.628933 -15.480436 -5.903919 -14.334311 44.594293 -1.954622 -18.695725 -38.471677 -0.385977 3.989391 -11.046829 0.713698 0.429174 0.489995 4.318802 0.313186 1.517916 4.045563 0.045572 1.264725 -5.944699 -3.090276 -14.795560 -0.623325 -4.287290 27.456636 0.059986 -3.187701 11.515053 0.000000 0.000000 0.000000 89.899648 4.236331 29.483176 26.645069 -37.837855 9.280880 38.982440 -24.482884 -7.671746 0.000000 0.000000 0.000000 -7.125000 0.000000 0.000000 10.623565 39.594966 1.427727 0.000000 0.000000 0.000000 -84.378488 2.927164 -27.933776 -16.634690 -26.373658 -3.923657 -33.458552 37.253151 30.657137 0.000000 0.000000 0.000000 7.125000 0.000000 0.000000 -2.862153 65.351527 1.408924
9.416341 20.464850 4.971282 360.384179 -174.920950 370.412800 0.000000 0.000000 0.000000 -22.914119 -6.552478 -45.850041 9.219073 16.946451 56.844450 1.685694 -9.388227 -23.283074 3.974077 -12.125489 -36.177967 0.000000 0.000000 0.000000 30.404163 13.106079 -6.020660 -4.263766 -12.503186 37.536380 -1.921602 -20.161617 -39.633258 -0.237560 3.137042 -8.660605 0.072452 0.035198 0.618481 0.765549 0.013281 1.396703 0.742869 -0.008707 1.082550 -5.869223 -2.934888 -15.422903 4.895798 -5.808521 28.458594 1.851823 -3.186174 12.251066 0.000000 0.000000 0.000000 81.062675 1.952309 24.767565 22.980002 -34.066837 7.127055 42.519551 -23.667485 -8.513704 0.000000 0.000000 0.000000 -7.125000 0.000000 0.000000 13.897095 41.055923 1.381814 0.000000 0.000000 0.000000 -83.692617 2.382221 -31.902729 -15.500353 -24.838419 -3.433369 -31.141390 35.035753 32.045452 0.000000 0.000000 0.000000 7.125000 0.000000 0.000000 0.956899 66.157822 -0.488412
9.628958 20.415487 3.287782 362.571299 -174.117583 370.755180 0.000000 0.000000 0.000000 -24.067824 -3.666240 -46.379724 9.490899 17.113274 57.772574 1.288635 -0.270149 -21.379473 2.970148 -10.646045 -31.095923 0.000000 0.000000 0.000000 33.515711 7.054958 -0.626902 -3.744438 -11.811794 35.070034 -1.196701 -14.441279 -30.337228 -0.709892 5.383686 -15.006514 -0.379573 -0.131404 -1.473676 -0.984258 -0.164318 1.093911 -0.801210 -0.087168 1.944858 -5.511003 -2.355110 -14.983265 8.105762 -6.525032 29.343547 2.902410 -3.191629 12.680953 0.000000 0.000000 0.000000 71.036774 1.064367 21.364898 20.999592 -31.827750 6.049767 42.515854 -20.852437 -9.268872 0.000000 0.000000 0.000000 -7.125000 0.000000 0.000000 14.014591 42.036930 1.045048 0.000000 0.000000 0.000000 -86.036566 3.874175 -30.306620 -16.051380 -25.589811 -3.668375 -33.905027 31.919296 33.302794 0.000000 0.000000 0.000000 7.125000 0.000000 0.000000 -2.263867 68.330104 1.267978
9.737900 20.220462 1.437379 363.433326 -177.851417 369.853457 0.000000 0.000000 0.000000 -21.982840 -3.018101 -36.061652 9.737471 17.259522 58.607226 2.892996 3.741128 -33.610062 3.296363 -11.158195 -32.817332 0.000000 0.000000 0.000000 29.391792 3.461787 -9.074652 -9.668750 -17.194807 58.340373 -0.389953 0.444180 -11.632197 -0.881044 5.969464 -16.700149 -1.728266 0.546798 -1.335715 -3.097743 0.704471 1.158737 -2.192375 0.300037 1.955218 -3.529565 -1.651819 -15.843028 9.318955 -6.518981 29.297048 3.010669 -2.833327 12.843042 0.000000 0.000000 0.000000 65.264484 2.605802 21.142641 19.691722 -30.267724 5.375796 44.825050 -21.351559 -10.622113 0.000000 0.000000 0.000000 -7.125000 0.000000 0.000000 16.435233 44.151064 0.354161 0.000000 0.000000 0.000000 -88.600097 4.622939 -33.405318 -15.964424 -25.472342 -3.630648 -32.638206 31.554077 33.282162 0.000000 0.000000 0.000000 7.125000 0.000000 0.000000 -0.424117 67.916719 0.234382
9.692844 19.849257 -0.392325 360.969402 -177.205521 369.178399 0.000000 0.000000 0.000000 -25.554050 -1.171349 -24.713544 8.808904 16.681675 55.424619 4.276529 5.873431 -41.375486 3.499152 -11.458820 -33.847510 0.000000 0.000000 0.000000 18.111955 15.037601 -31.185595 -17.046013 -19.788407 81.333416 -0.672711 -7.096297 -19.651599 -0.306298 -3.556327 9.831737 -4.206540 -1.243543 2.188502 -1.807546 -1.840224 1.030100 0.541742 -0.969150 -0.098741 -2.538200 -2.704424 -14.691732 5.259264 -3.121139 28.347003 2.075321 -0.401221 11.846175 0.000000 0.000000 0.000000 63.875236 1.930302 21.204191 18.516346 -28.812934 4.795679 44.224437 -21.974596 -11.743039 0.000000 0.000000 0.000000 -7.125000 0.000000 0.000000 16.075591 45.520935 -0.212998 0.000000 0.000000 0.000000 -95.944849 3.835336 -34.761357 -18.866385 -29.251887 -4.965633 -38.866432 35.836481 38.988716 0.000000 0.000000 0.000000 7.125000 0.000000 0.000000 -7.442947 75.990733 5.437171
